<?xml version="1.0" standalone="no"?>
<!DOCTYPE svg PUBLIC "-//W3C//DTD SVG 20010904//EN"
 "http://www.w3.org/TR/2001/REC-SVG-20010904/DTD/svg10.dtd">
<svg version="1.0" xmlns="http://www.w3.org/2000/svg"
 width="200.000000pt" height="150.000000pt" viewBox="0 0 200.000000 150.000000"
 preserveAspectRatio="xMidYMid meet">
<metadata>
Created by potrace 1.16, written by Peter Selinger 2001-2019
</metadata>
<g transform="translate(0.000000,150.000000) scale(0.052770,-0.042614)"
fill="#000000" stroke="none">
<path d="M1747 3334 c-32 -14 -80 -27 -105 -31 -27 -3 -64 -18 -87 -34 -22
-15 -57 -30 -77 -33 -20 -3 -70 -17 -112 -31 -51 -17 -96 -25 -143 -25 l-69 0
-46 -47 c-32 -33 -47 -59 -51 -83 -2 -19 -14 -65 -25 -102 -20 -66 -20 -67 -1
-100 33 -58 47 -90 80 -195 42 -133 63 -169 127 -214 79 -54 129 -107 137
-143 3 -17 8 -116 10 -221 7 -314 11 -325 122 -345 144 -26 578 -19 696 11 65
17 69 32 73 274 4 206 5 215 26 238 13 13 47 52 77 86 38 44 69 69 107 86 52
23 94 70 94 105 0 9 11 32 25 53 16 22 33 73 45 128 11 51 32 115 47 145 l26
53 -29 87 c-44 134 -54 146 -149 167 -44 10 -98 27 -120 37 -22 10 -78 21
-125 25 -47 4 -114 18 -150 30 -249 89 -298 104 -320 104 -14 0 -51 -12 -83
-25z m162 -35 c36 -11 93 -29 126 -41 102 -34 235 -68 269 -68 19 0 62 -9 97
-20 35 -11 94 -26 132 -32 81 -13 112 -41 102 -92 -4 -21 -3 -27 3 -17 7 10
14 -2 26 -44 18 -58 18 -103 2 -97 -13 5 -26 -21 -31 -59 -5 -37 -24 -123 -36
-159 -6 -18 -7 -13 -4 20 l4 45 -12 -47 c-7 -25 -15 -50 -19 -54 -4 -4 -5 -19
-2 -33 4 -20 3 -23 -5 -11 -9 12 -11 10 -11 -13 0 -46 -26 -95 -60 -112 l-31
-16 31 42 c16 23 30 47 30 53 0 6 -9 -2 -20 -19 -20 -30 -24 -28 -21 10 2 15
-3 12 -18 -12 -12 -18 -24 -33 -29 -33 -5 0 -18 -9 -30 -20 l-22 -21 0 25 c0
16 10 32 26 43 34 23 84 75 84 87 0 5 -3 6 -7 3 -3 -4 -12 -2 -20 4 -10 9 -13
7 -13 -6 0 -11 -5 -15 -15 -11 -10 4 -19 -2 -25 -17 -8 -18 -9 -16 -5 13 5 32
4 33 -6 10 -6 -14 -12 -38 -14 -55 -2 -16 -11 -43 -19 -60 l-16 -30 5 45 c3
34 1 30 -10 -20 -9 -35 -26 -80 -39 -100 -12 -19 -30 -47 -40 -62 -10 -18 -25
-28 -39 -27 -21 0 -21 1 -2 9 13 6 15 9 5 9 -12 1 -12 3 -2 9 7 5 28 32 46 61
28 44 33 59 29 89 -8 53 -13 52 -13 -1 0 -25 -4 -48 -9 -51 -4 -3 -7 12 -5 34
1 22 -1 40 -5 40 -5 0 -2 23 5 52 8 28 12 53 10 55 -3 4 -72 -205 -79 -242 -3
-11 -5 27 -6 85 0 58 -5 130 -10 160 l-9 55 -3 -85 c-2 -47 -3 -103 -2 -125
l1 -40 -14 30 c-12 28 -13 26 -14 -47 l0 -78 -39 0 c-36 0 -39 2 -56 46 -10
26 -23 90 -30 143 -11 82 -13 88 -14 43 -1 -34 -5 -51 -12 -47 -12 8 -4 122
16 210 8 33 16 83 19 110 4 40 0 33 -19 -40 -16 -59 -28 -140 -34 -235 -6 -80
-13 -167 -16 -195 -2 -27 -2 -44 1 -36 5 11 8 11 16 0 6 -9 8 10 4 55 -3 38
-3 67 0 64 3 -3 13 -34 22 -69 l17 -64 55 -6 55 -6 -45 -3 c-61 -4 -419 0
-500 5 l-65 5 70 -14 c76 -16 404 -19 580 -7 55 4 102 6 104 5 5 -4 -69 -21
-169 -38 l-95 -15 95 5 c52 3 104 6 115 7 19 2 20 -5 23 -168 2 -93 0 -194 -3
-223 -6 -45 -10 -55 -33 -64 -72 -29 -577 -43 -697 -20 -92 18 -91 15 -100
271 -4 121 -4 224 -1 230 5 7 15 7 32 1 14 -6 46 -9 72 -9 l47 1 -49 9 c-65
11 -111 30 -95 40 7 4 17 6 23 4 6 -2 27 -6 46 -9 35 -5 35 -5 10 9 -32 18
-28 18 67 0 83 -16 368 -21 377 -7 3 5 7 33 10 63 3 30 3 45 0 34 -11 -39 -24
-40 -24 -2 0 21 -5 37 -11 37 -12 0 -10 37 7 165 4 28 4 47 1 44 -8 -7 -37
-220 -37 -271 0 -46 -8 -68 -25 -68 -10 0 -13 18 -13 68 0 37 0 119 -2 182 -2
76 3 137 13 180 8 36 18 90 21 120 5 41 -2 25 -24 -60 -22 -85 -30 -139 -30
-205 l-1 -90 -26 60 c-14 33 -32 85 -39 115 l-14 55 5 -53 c2 -29 20 -92 39
-140 23 -57 38 -114 42 -161 9 -93 -7 -93 -40 -1 -12 36 -31 78 -42 94 -10 17
-36 68 -56 115 -21 47 -37 76 -38 64 0 -12 6 -34 14 -50 55 -109 97 -205 93
-210 -7 -6 -77 60 -77 73 0 5 -8 18 -16 29 -15 19 -16 15 -12 -47 3 -52 9 -73
26 -91 12 -13 22 -26 22 -30 0 -12 -87 -7 -97 6 -6 6 -22 51 -36 98 -15 48
-34 93 -44 100 -15 13 -15 12 -4 -9 7 -12 25 -61 40 -107 21 -63 25 -85 15
-85 -8 0 -20 14 -29 30 -17 33 -31 41 -21 13 5 -15 3 -14 -9 2 -9 11 -18 31
-22 45 -3 14 -16 44 -29 67 -14 24 -29 69 -35 100 -10 55 -68 207 -76 200 -3
-4 13 -49 37 -102 20 -46 32 -97 26 -118 -3 -14 3 -36 16 -57 29 -48 78 -170
68 -170 -5 0 -21 18 -37 41 -50 73 -85 110 -100 105 -8 -3 -12 -2 -9 2 2 4 0
14 -6 22 -8 12 -9 12 -4 -2 18 -56 -85 30 -124 104 -29 54 -24 61 6 8 28 -50
63 -90 77 -90 4 0 -5 14 -22 31 -32 31 -39 49 -21 49 6 0 4 13 -5 30 -9 17
-13 35 -10 39 7 12 -36 122 -45 116 -4 -3 -11 -19 -14 -37 l-8 -33 -10 25
c-13 33 -20 140 -8 120 8 -12 10 -10 10 9 0 20 -2 21 -15 11 -8 -7 -15 -19
-15 -26 0 -8 -4 -14 -10 -14 -15 0 -12 -51 5 -84 9 -16 13 -36 10 -44 -6 -15
23 -117 31 -109 2 2 -3 26 -11 52 -18 62 -13 69 10 13 16 -38 22 -65 27 -118
2 -26 24 -49 99 -106 81 -61 119 -108 100 -127 -8 -8 -11 -6 -11 8 0 23 -114
132 -157 150 -17 7 -38 26 -46 42 -31 60 -76 211 -82 278 -9 85 -18 104 -25
50 l-5 -40 -17 32 c-16 28 -16 35 -2 82 8 28 12 56 9 61 -3 5 0 29 6 52 16 56
81 117 126 118 17 0 67 7 110 16 43 9 106 22 140 29 58 11 104 6 72 -9 -8 -3
-5 -4 6 -1 11 2 53 12 93 21 40 9 71 18 69 21 -3 2 -22 0 -44 -6 -54 -15 -74
-13 -38 4 22 11 24 13 6 9 -18 -5 -22 -3 -15 7 6 11 5 12 -7 3 -8 -6 -25 -14
-39 -17 -24 -6 -23 -5 5 18 17 13 41 24 55 25 14 0 59 11 100 24 94 30 109 31
189 5z"/>
<path d="M118 1385 c-3 -3 16 -93 43 -201 l47 -196 -48 -197 c-26 -108 -45
-199 -43 -203 2 -5 791 -8 1754 -8 1438 0 1749 2 1749 13 0 7 -22 99 -49 204
l-50 191 50 189 c27 103 49 194 49 201 0 9 -356 12 -1748 12 -962 0 -1751 -2
-1754 -5z m849 -108 c4 -5 3 -14 -2 -21 -51 -69 -48 -54 -53 -312 -5 -242 -5
-244 -26 -244 -32 0 -90 65 -206 230 -140 197 -161 223 -172 212 -6 -6 -9 -80
-6 -189 3 -153 6 -182 23 -210 10 -18 16 -35 13 -38 -9 -10 -145 -11 -154 -2
-4 4 6 20 23 36 28 25 32 36 38 105 4 43 6 140 3 217 l-4 139 -32 33 c-18 18
-29 36 -26 40 13 13 94 7 124 -8 35 -18 89 -81 219 -257 55 -76 105 -138 111
-138 17 0 22 47 18 194 -3 133 -5 147 -27 176 -19 26 -21 34 -10 42 16 10 134
6 146 -5z m562 -13 c21 -27 29 -74 12 -74 -5 0 -29 9 -55 21 -27 12 -70 21
-102 21 -75 2 -94 -18 -101 -104 -5 -60 -4 -66 18 -82 29 -20 65 -20 103 -1
51 27 66 16 66 -50 0 -40 -9 -65 -22 -65 -5 0 -23 9 -39 21 -21 14 -41 19 -71
17 -55 -4 -71 -30 -64 -111 5 -72 25 -104 70 -112 42 -8 151 18 188 45 15 11
30 20 33 20 13 0 3 -70 -14 -91 -19 -23 -23 -24 -210 -27 -130 -2 -197 0 -212
8 -21 12 -21 12 10 40 l31 29 2 163 c4 264 1 289 -29 314 -46 39 -25 44 177
44 l189 0 20 -26z m396 20 c14 -6 13 -10 -10 -34 -35 -37 -48 -134 -43 -333 4
-168 8 -177 80 -177 75 0 127 20 160 61 46 57 62 52 54 -15 -8 -75 -13 -83
-48 -90 -40 -8 -372 -8 -393 0 -14 6 -12 11 12 36 l28 29 3 234 3 233 -31 22
c-16 12 -28 26 -25 31 7 10 184 13 210 3z m775 -14 c13 -13 20 -33 20 -56 l0
-36 -33 21 c-35 21 -123 38 -170 33 -36 -4 -55 -35 -63 -103 -6 -49 -4 -59 15
-78 25 -25 72 -27 111 -5 44 27 60 14 60 -50 0 -30 -5 -58 -10 -61 -6 -4 -25
3 -44 14 -40 25 -98 27 -120 5 -11 -11 -16 -35 -16 -79 0 -125 28 -147 152
-122 43 9 91 25 108 37 37 27 47 12 28 -45 -9 -28 -20 -41 -38 -46 -38 -11
-383 -10 -400 1 -12 7 -10 14 15 40 l30 31 3 220 3 220 -31 29 c-17 16 -29 34
-25 40 4 6 77 10 196 10 176 0 190 -1 209 -20z m547 -8 c93 -49 98 -165 11
-235 -22 -17 -22 -18 -4 -30 102 -65 129 -133 86 -217 -35 -69 -78 -84 -258
-88 -84 -2 -165 -1 -180 3 l-27 7 29 23 c39 31 46 84 41 315 l-3 174 -33 29
c-51 42 -29 48 146 45 133 -3 155 -6 192 -26z"/>
<path d="M3051 1236 c-8 -9 -11 -48 -9 -112 l3 -99 63 0 c59 0 66 3 93 33 34
38 40 102 13 141 -31 44 -137 68 -163 37z"/>
<path d="M3050 961 c-11 -21 -14 -161 -4 -198 12 -45 124 -41 178 7 28 25 31
34 31 83 0 41 -5 61 -20 77 -44 50 -164 70 -185 31z"/>
<path d="M1270 460 l0 -39 -75 2 c-41 2 -75 0 -75 -4 0 -4 14 -33 31 -64 l30
-55 -30 -54 c-17 -29 -31 -56 -31 -60 0 -3 59 -6 130 -6 l130 0 0 30 0 30 485
0 485 0 0 -30 0 -30 130 0 c72 0 130 3 130 8 -1 4 -14 31 -29 61 l-28 54 33
59 c35 62 36 62 -38 58 -72 -3 -88 5 -88 46 l0 34 -595 0 -595 0 0 -40z m1160
-90 l0 -100 -560 0 -560 0 0 100 0 100 560 0 560 0 0 -100z m-1160 -55 l0 -75
33 -14 c31 -14 30 -14 -50 -15 l-83 -1 22 45 22 45 -22 45 -22 45 50 0 50 0 0
-75z m1290 70 c0 -3 -9 -24 -20 -46 l-21 -40 22 -39 c13 -22 20 -42 17 -45 -3
-3 -41 -4 -84 -3 -66 3 -74 5 -46 12 l32 9 0 78 0 79 50 0 c28 0 50 -2 50 -5z"/>
</g>
</svg>
